<svg version="1.1" xmlns="http://www.w3.org/2000/svg" viewBox="0 0 250 250"><desc>Created with Snap</desc><defs></defs><g transform="matrix(0.0347,0,0,0.0347,77.3286,137.0567)"><g transform="matrix(17.8887,0,0,17.8887,-2008.6722,-1240.6754)"><g><path d="M78.4,66.5c-5.5,4.8-9.9,15.2-9.9,15.2s-6.9-11.4-12.9-15.3c-9.5-6.1-13.6-6.2-13.6-6.2V65c0,0,7.8,1.2,11.7,4.6   c8.2,7.1,14.8,18.5,14.8,18.5S74.4,75,80.1,70.5C88.1,64.3,95,65,95,65v-4.8C95,60.1,85.1,60.7,78.4,66.5z" fill="#85421e" style=""></path><path d="M42,80c-6.4-3.6-17.8-4.3-17.8-4.3s8.7-10.1,10.5-17C37.5,47.9,36.2,44,36.2,44l-4.6,1.6c0,0,1.3,7.7-0.6,12.4   c-4.1,9.9-13,19.8-13,19.8s14.6,1.3,20.7,5.1c8.6,5.4,10.2,12,10.2,12l4.6-1.6C53.5,93.4,49.7,84.4,42,80z" fill="#85421e" style=""></path><path d="M35.3,36.8c11.3-0.9,14.6-3.4,14.6-3.4l-3-3.8c0,0-6.9,3.7-12.1,3.4c-10.9-0.6-23.3-5.6-23.3-5.6s3.5,14,1.8,20.9   C10.9,58.2,5,61.8,5,61.8l3,3.8c0,0,7.5-6.5,9.1-15.1c1.3-7.1-1.7-18-1.7-18S28,37.4,35.3,36.8z" fill="#85421e" style=""></path><path d="M37.4,17.8c7.3-1.1,16.7-7.4,16.7-7.4s-0.6,13.2,2.4,19.8c4.6,10.2,8,12.5,8,12.5l2.7-4c0,0-5.9-5.2-7.3-10.2   C56.9,18.2,57.7,5,57.7,5s-12.3,7.8-19.5,8.5c-10.2,1-15.6-3.3-15.6-3.3l-2.7,4.1C19.9,14.2,28.6,19.1,37.4,17.8z" fill="#85421e" style=""></path><path d="M65,60.5c0,0,3.1-7.2,7.4-10.1c9-6.1,21.9-9.7,21.9-9.7s-11.5-8.9-14.5-15.4c-4.2-9.1-1.9-15.6-1.9-15.6l-4.8-1.2   c0,0-1.9,9.6,2.2,17.4c3.4,6.4,12.5,13.2,12.5,13.2S75,42.9,69.6,47.8c-8.3,7.6-9.4,11.5-9.4,11.5L65,60.5z" fill="#85421e" style=""></path></g><desc>Created with Snap</desc><defs></defs></g><g><g transform="matrix(1.024,0,0,-1.024,0,0)"><path d="M646 51L646 0L423 0L423 51L519 51L466 192L173 192L117 51L220 51L220 0L-2 0L-2 51L59 51L279 599L172 599L172 650L347 650L580 51L646 51ZM191 238L449 238L325 566L320 566L191 238ZM951 129L994 115Q974 -10 859 -10Q794 -10 761 28Q729 66 729 130L729 397L656 397L656 444L729 444L729 588L784 588L784 444L961 444L961 397L784 397L784 136Q784 92 802 65Q820 39 865 39Q894 39 917 56Q940 74 951 129ZM1242 46L1242 0L1023 0L1023 46L1105 46L1105 642L1022 642L1022 688L1160 688L1160 46L1242 46ZM1332 310L1348 409Q1376 432 1415 442Q1455 453 1495 453Q1649 453 1649 304L1649 88Q1649 37 1688 37Q1708 37 1721 44L1722 4Q1700 -10 1670 -10Q1594 -10 1594 80L1594 82Q1573 46 1533 18Q1494 -10 1441 -10Q1397 -10 1351 16Q1306 43 1306 114Q1306 198 1373 224Q1440 251 1514 251Q1535 251 1555 249Q1576 248 1594 247L1594 294Q1594 345 1570 374Q1547 404 1486 404Q1436 404 1396 384L1378 304L1332 310ZM1594 163L1594 204Q1575 206 1553 207Q1531 209 1507 209Q1453 209 1408 192Q1364 176 1364 120Q1364 72 1395 55Q1426 39 1455 39Q1505 39 1548 73Q1591 108 1594 163ZM2129 126Q2129 64 2076 27Q2024 -10 1947 -10Q1900 -10 1854 3Q1809 17 1785 34L1797 128L1842 124L1838 64Q1885 39 1945 39Q1994 39 2033 58Q2073 78 2073 120Q2073 160 2044 177Q2016 194 1974 201Q1932 209 1890 218Q1849 227 1820 251Q1792 275 1792 326Q1792 394 1841 423Q1890 453 1948 453Q1994 453 2034 440Q2075 427 2100 412L2110 310L2064 304L2052 379Q2031 390 2008 397Q1985 404 1955 404Q1908 404 1879 387Q1850 370 1850 332Q1850 294 1878 278Q1906 263 1948 256Q1990 249 2031 239Q2073 229 2101 204Q2129 179 2129 126ZM2965 182Q2965 105 2909 52Q2854 0 2747 0L2453 0L2453 51L2538 51L2538 599L2453 599L2453 650L2742 650Q2843 650 2890 607Q2937 564 2937 493Q2937 440 2906 401Q2875 362 2827 352L2827 348Q2898 337 2931 290Q2965 244 2965 182ZM2876 481Q2876 547 2840 573Q2804 599 2736 599L2595 599L2595 361L2734 361Q2792 361 2834 391Q2876 421 2876 481ZM2904 185Q2904 243 2870 278Q2836 313 2767 313L2595 313L2595 51L2740 51Q2813 51 2858 82Q2904 114 2904 185ZM3078 310L3094 409Q3122 432 3161 442Q3201 453 3241 453Q3395 453 3395 304L3395 88Q3395 37 3434 37Q3454 37 3467 44L3468 4Q3446 -10 3416 -10Q3340 -10 3340 80L3340 82Q3319 46 3279 18Q3240 -10 3187 -10Q3143 -10 3097 16Q3052 43 3052 114Q3052 198 3119 224Q3186 251 3260 251Q3281 251 3301 249Q3322 248 3340 247L3340 294Q3340 345 3316 374Q3293 404 3232 404Q3182 404 3142 384L3124 304L3078 310ZM3340 163L3340 204Q3321 206 3299 207Q3277 209 3253 209Q3199 209 3154 192Q3110 176 3110 120Q3110 72 3141 55Q3172 39 3201 39Q3251 39 3294 73Q3337 108 3340 163ZM4046 46L4046 0L3827 0L3827 46L3909 46L3909 267Q3909 343 3877 373Q3846 404 3799 404Q3734 404 3695 361Q3656 319 3654 267L3654 46L3736 46L3736 0L3516 0L3516 46L3599 46L3599 397L3515 397L3515 444L3654 444L3654 362Q3703 453 3812 453Q3878 453 3921 412Q3964 371 3964 280L3964 46L4046 46ZM4555 46L4555 0L4350 0L4350 46L4424 46L4291 214L4208 214L4208 46L4279 46L4279 0L4071 0L4071 46L4153 46L4153 642L4070 642L4070 688L4208 688L4208 258L4290 258L4401 397L4328 397L4328 444L4531 444L4531 397L4459 397L4333 241L4486 46L4555 46Z" fill="#85421e" style=""></path></g></g></g></svg>